<?xml version="1.0" encoding="utf-8"?>
<!-- Generator: Adobe Illustrator 15.0.0, SVG Export Plug-In . SVG Version: 6.00 Build 0)  -->
<!DOCTYPE svg PUBLIC "-//W3C//DTD SVG 1.1//EN" "http://www.w3.org/Graphics/SVG/1.1/DTD/svg11.dtd">
<svg version="1.1" id="Layer_1" xmlns="http://www.w3.org/2000/svg" xmlns:xlink="http://www.w3.org/1999/xlink" x="0px" y="0px"
	 width="69px" height="69px" viewBox="0 0 69 69" enable-background="new 0 0 69 69" xml:space="preserve">

   <g>
    <path fill="#6D768A" d="M68.75,38.5v-8.25l-10.771-2.691c-0.513-1.777-1.209-3.474-2.09-5.061l5.709-9.512l-5.834-5.834
      l-9.516,5.71c-1.585-0.876-3.28-1.569-5.055-2.081L38.5,0h-8.25l-2.696,10.786c-1.77,0.512-3.46,1.207-5.041,2.081l-9.529-5.716
      L7.15,12.985l5.72,9.532c-0.872,1.578-1.563,3.267-2.074,5.035L0,30.25v8.25l10.796,2.698c0.51,1.768,1.202,3.456,2.074,5.034
      l-5.717,9.533l5.833,5.832l9.528-5.715c1.581,0.875,3.271,1.569,5.042,2.081L30.25,68.75h8.25l2.693-10.779
      c1.774-0.512,3.47-1.207,5.057-2.082l9.516,5.709l5.832-5.832l-5.705-9.513c0.877-1.587,1.574-3.285,2.088-5.062L68.75,38.5z
       M34.386,48.561c-7.834,0-14.188-6.351-14.188-14.186s6.354-14.186,14.187-14.186c7.836,0,14.188,6.352,14.188,14.186
      C48.572,42.21,42.221,48.561,34.386,48.561z"/>
    <circle fill="#6D768A" cx="34.386" cy="34.375" r="7.182"/>
  </g>

</svg>
