<?xml version="1.0" encoding="utf-8"?>
<!-- Generator: Adobe Illustrator 15.0.0, SVG Export Plug-In . SVG Version: 6.00 Build 0)  -->
<!DOCTYPE svg PUBLIC "-//W3C//DTD SVG 1.1//EN" "http://www.w3.org/Graphics/SVG/1.1/DTD/svg11.dtd">
<svg version="1.1" id="Layer_1" xmlns="http://www.w3.org/2000/svg" xmlns:xlink="http://www.w3.org/1999/xlink" x="0px" y="0px"
   width="116px" height="116px" viewBox="0 0 116 116" enable-background="new 0 0 116 116" xml:space="preserve">

  <defs>
    <filter id="f1" x="0" y="0" width="200%" height="200%">
      <!-- <feOffset result="offOut" in="SourceGraphic" dx="0" dy="1" /> -->
      <feGaussianBlur result="blurOut" in="SourceGraphic" stdDeviation="2" />
      <feBlend in="SourceGraphic" in2="blurOut" mode="normal" />
    </filter>
  </defs>

  <g filter="url(#f1)">
    <path fill="#fff" d="M57.998,30.937c-14.868,0-26.921,12.051-26.921,26.92c0,14.87,12.051,26.92,26.921,26.92
      c14.869,0,26.921-12.051,26.921-26.92C84.919,42.987,72.863,30.937,57.998,30.937z M57.998,74.95
      c-9.44,0-17.093-7.652-17.093-17.093c0-9.44,7.652-17.093,17.093-17.093c9.439,0,17.094,7.653,17.094,17.093
      C75.092,67.298,67.438,74.95,57.998,74.95z"/>
    <path fill="#fff" d="M104.492,64.842c0.322-2.232,0.496-4.515,0.496-6.843c0-2.325-0.174-4.609-0.5-6.843l10.271-6.058
      l-3.257-10.025L99.63,36.21c-2.139-4.079-4.856-7.803-8.047-11.065l4.754-10.95L87.809,8l-8.935,7.899
      c-4.047-2.01-8.417-3.451-13.021-4.226L63.266,0.027H52.727l-2.589,11.646c-4.601,0.775-8.975,2.216-13.018,4.226L28.187,8
      l-8.528,6.196l4.754,10.948c-3.191,3.263-5.91,6.988-8.047,11.065L4.493,35.072L1.234,45.095l10.274,6.06
      c-0.327,2.234-0.501,4.518-0.501,6.842c0,2.325,0.175,4.61,0.501,6.844L1.234,70.898l3.258,10.027l11.874-1.138
      c2.139,4.078,4.856,7.802,8.047,11.063l-4.754,10.949l8.529,6.195l8.935-7.898c4.043,2.01,8.415,3.452,13.016,4.227l2.588,11.648
      h10.539l2.59-11.647c4.603-0.774,8.973-2.218,13.02-4.226l8.934,7.896l8.53-6.191l-4.754-10.951
      c3.19-3.264,5.908-6.987,8.047-11.063l11.873,1.138l3.261-10.025L104.492,64.842z M57.998,93.654
      c-19.694,0-35.655-15.965-35.655-35.656c0-19.693,15.964-35.654,35.655-35.654c19.689,0,35.656,15.959,35.656,35.654
      C93.652,77.693,77.689,93.654,57.998,93.654z"/>
  </g>
</svg>
